<svg xmlns="http://www.w3.org/2000/svg" width="1024" height="1024" viewBox="0 0 1024 1024">
  <defs>
    <linearGradient id="bg" x1="0%" y1="0%" x2="100%" y2="100%">
      <stop offset="0%" stop-color="#030712"/>
      <stop offset="100%" stop-color="#090f1f"/>
    </linearGradient>
    <linearGradient id="cass" x1="0%" y1="0%" x2="100%" y2="0%">
      <stop offset="0%" stop-color="#f97316"/>
      <stop offset="100%" stop-color="#fb923c"/>
    </linearGradient>
    <linearGradient id="neon" x1="0%" y1="0%" x2="100%" y2="0%">
      <stop offset="0%" stop-color="#22d3ee"/>
      <stop offset="100%" stop-color="#f472b6"/>
    </linearGradient>
  </defs>
  <rect width="1024" height="1024" rx="224" fill="url(#bg)"/>
  <rect x="200" y="280" width="624" height="464" rx="80" fill="#0f172a" stroke="url(#cass)" stroke-width="10"/>
  <rect x="260" y="340" width="504" height="120" rx="30" fill="#090f1f" stroke="#1f2937" stroke-width="6"/>
  <text x="512" y="420" text-anchor="middle" font-family="Baloo 2, Fredoka, sans-serif" font-size="64" font-weight="600" letter-spacing="4" fill="#fb923c">juke</text>
  <path d="M300 380 L724 380" stroke="url(#neon)" stroke-width="10" stroke-linecap="round" opacity="0.6"/>
  <circle cx="400" cy="564" r="76" fill="#030712" stroke="url(#neon)" stroke-width="8" opacity="0.8"/>
  <circle cx="624" cy="564" r="76" fill="#030712" stroke="url(#neon)" stroke-width="8" opacity="0.8"/>
  <path d="M372 564 A 28 28 0 0 1 428 564" fill="none" stroke="#22d3ee" stroke-width="5" stroke-linecap="round" opacity="0.6"/>
  <path d="M596 564 A 28 28 0 0 1 652 564" fill="none" stroke="#f472b6" stroke-width="5" stroke-linecap="round" opacity="0.6"/>
  <circle cx="400" cy="564" r="16" fill="#f97316"/>
  <circle cx="624" cy="564" r="16" fill="#f97316"/>
  <path d="M344 680 L680 680 L704 720 L320 720 Z" fill="#090f1f" stroke="url(#neon)" stroke-width="5" opacity="0.7"/>
</svg>
